<?xml version="1.0" encoding="UTF-8" standalone="no"?>
<!-- Created with Inkscape (http://www.inkscape.org/) -->

<svg
   xmlns:dc="http://purl.org/dc/elements/1.1/"
   xmlns:cc="http://creativecommons.org/ns#"
   xmlns:rdf="http://www.w3.org/1999/02/22-rdf-syntax-ns#"
   xmlns:svg="http://www.w3.org/2000/svg"
   xmlns="http://www.w3.org/2000/svg"
   xmlns:sodipodi="http://sodipodi.sourceforge.net/DTD/sodipodi-0.dtd"
   xmlns:inkscape="http://www.inkscape.org/namespaces/inkscape"
   width="16px"
   height="16px"
   viewBox="0 0 16 16"
   version="1.1"
   id="SVGRoot"
   sodipodi:docname="checknarc.svg"
   inkscape:version="0.92.2 (5c3e80d, 2017-08-06)">
  <sodipodi:namedview
     id="base"
     pagecolor="#ffffff"
     bordercolor="#666666"
     borderopacity="1.0"
     inkscape:pageopacity="0.0"
     inkscape:pageshadow="2"
     inkscape:zoom="32"
     inkscape:cx="6.6202894"
     inkscape:cy="9.7111431"
     inkscape:document-units="px"
     inkscape:current-layer="layer1"
     showgrid="false"
     inkscape:window-width="1920"
     inkscape:window-height="950"
     inkscape:window-x="0"
     inkscape:window-y="27"
     inkscape:window-maximized="1"
     inkscape:grid-bbox="true"
     inkscape:measure-start="0,0"
     inkscape:measure-end="0,0" />
  <defs
     id="defs10" />
  <metadata
     id="metadata13">
    <rdf:RDF>
      <cc:Work
         rdf:about="">
        <dc:format>image/svg+xml</dc:format>
        <dc:type
           rdf:resource="http://purl.org/dc/dcmitype/StillImage" />
        <dc:title></dc:title>
      </cc:Work>
    </rdf:RDF>
  </metadata>
  <g
     inkscape:groupmode="layer"
     id="layer2"
     inkscape:label="Layer 2" />
  <g
     id="layer1"
     inkscape:groupmode="layer"
     inkscape:label="Layer 1"
     style="display:inline">
    <g
       id="g4709"
       transform="translate(0.09375,0.25)">
      <path
         inkscape:connector-curvature="0"
         id="path39"
         d="m 4.091437,8.4021456 0.9596065,-0.997991 c 0,0 0.4414211,-0.3070723 0.7868774,-0.09596 0.3454564,0.2111122 1.823252,1.8040604 1.823252,1.8040604 L 12.766279,4.0455332 c 0,0 0.556572,-0.4606112 0.959607,-0.09596 0.403037,0.3646484 0.978798,0.9596065 0.978798,0.9596065 0,0 0.479804,0.4989948 -0.115157,1.0363746 -0.594956,0.5373798 -6.2950175,6.3142087 -6.2950175,6.3142087 0,0 -0.5757638,0.786878 -1.5353703,-0.211112 -0.9596046,-0.99799 -2.7252805,-2.9172017 -2.7252805,-2.9172017 0,0 -0.2303043,-0.3070723 0.057578,-0.7293037 z"
         style="fill:#0000ff;stroke:#0000ff;stroke-width:0;stroke-linecap:butt;stroke-linejoin:miter;stroke-miterlimit:4;stroke-dasharray:none;stroke-opacity:1" />
      <path
         inkscape:connector-curvature="0"
         id="path4648"
         d="m 12.141279,3.2955332 c 0,0 -5.0996763,1.6160945 -8.2241256,-0.1436528 L 3.8812402,0.8175218 c 0,0 4.0581928,-1.75974735 8.0086458,0.071826 l 0.0359,2.4061851"
         style="fill:none;stroke:#000000;stroke-width:0.45968911;stroke-linecap:butt;stroke-linejoin:miter;stroke-miterlimit:4;stroke-dasharray:none;stroke-opacity:1" />
      <path
         inkscape:connector-curvature="0"
         id="path4650"
         d="M 4.5344969,3.5902374 4.785887,14.507853 c 0,0 2.8730568,1.687921 6.464378,-0.0359"
         style="fill:none;stroke:#000000;stroke-width:0.45968911;stroke-linecap:butt;stroke-linejoin:miter;stroke-miterlimit:4;stroke-dasharray:none;stroke-opacity:1" />
      <path
         inkscape:connector-curvature="0"
         id="path4656"
         d="M 11.250265,14.471952 Z"
         style="fill:none;stroke:#000000;stroke-width:4.59689093px;stroke-linecap:butt;stroke-linejoin:miter;stroke-opacity:1" />
      <path
         inkscape:connector-curvature="0"
         id="path4660"
         d="m 11.39392,3.644107 -0.143653,10.827845 c 0,0 -3.3040175,1.651996 -6.4643777,0.0359"
         style="fill:none;stroke:#000000;stroke-width:0.45968911;stroke-linecap:butt;stroke-linejoin:miter;stroke-miterlimit:4;stroke-dasharray:none;stroke-opacity:1" />
      <path
         inkscape:connector-curvature="0"
         id="path4662"
         d="m 4.8756721,13.753676 c 0,0 2.2984455,1.364702 6.3207249,0.01797 l 0.05387,0.700302 c 0,0 -3.4117522,1.777692 -6.4643751,0.0359 z"
         style="fill:#ff6600;stroke:#000000;stroke-width:0.22984456;stroke-linecap:butt;stroke-linejoin:miter;stroke-miterlimit:4;stroke-dasharray:none;stroke-opacity:1" />
      <path
         inkscape:connector-curvature="0"
         id="path4664"
         d="M 11.358007,4.2725884 C 7.3895968,5.2602014 4.6063233,4.3444148 4.6063233,4.3444148 L 4.5344969,3.5902374 c 0,0 2.4600551,1.0594395 6.8594231,0.053871 z"
         style="fill:#ff6600;fill-opacity:1;stroke:#000000;stroke-width:0.22984456;stroke-linecap:butt;stroke-linejoin:miter;stroke-miterlimit:4;stroke-dasharray:none;stroke-opacity:1" />
    </g>
  </g>
</svg>
